<svg width="2458" height="512" viewBox="0 0 2458 512" fill="none" xmlns="http://www.w3.org/2000/svg">
<path d="M2074.64 157.368C2000.66 157.368 1940.47 216.331 1940.47 288.8C1940.47 361.268 2000.66 420.231 2074.64 420.231C2148.62 420.231 2208.81 361.268 2208.81 288.8C2208.81 216.331 2148.62 157.368 2074.64 157.368ZM2074.64 353.58C2038.18 353.58 2008.51 324.515 2008.51 288.8C2008.51 253.085 2038.18 224.019 2074.64 224.019C2111.1 224.019 2140.77 253.085 2140.77 288.8C2140.77 324.515 2111.1 353.58 2074.64 353.58Z" fill="#051C97"/>
<path d="M2174.98 161.914H2174.95C2156.01 161.914 2140.67 176.951 2140.67 195.499V390.672C2140.67 409.22 2156.01 424.257 2174.95 424.257H2174.98C2193.91 424.257 2209.26 409.22 2209.26 390.672V195.499C2209.26 176.951 2193.91 161.914 2174.98 161.914Z" fill="#051C97"/>
<path d="M717.621 86.2761C698.822 86.2761 683.602 101.185 683.602 119.601V262.955L677.689 257.163L515.519 97.9906C511.462 94.0165 506.636 91.3152 501.545 89.6268C497.091 87.5489 492.185 86.2761 486.935 86.2761C468.136 86.2761 452.916 101.185 452.916 119.601V390.931C452.916 409.347 468.136 424.257 486.935 424.257C505.735 424.257 520.955 409.347 520.955 390.931V203.551L677.662 357.32L683.575 363.113V390.957C683.575 409.373 698.795 424.283 717.595 424.283C736.394 424.283 751.614 409.373 751.614 390.957V119.601C751.614 101.185 736.394 86.2761 717.595 86.2761H717.621Z" fill="#051C97"/>
<path d="M993.013 298.384C986.994 302.514 982.752 308.54 980.206 315.319C975.699 327.293 967.558 338.125 956.104 345.995C932.346 362.281 901.243 361.034 878.97 345.112L981.718 274.643C981.718 274.643 981.771 274.721 981.718 274.747L1022.76 246.591C1032.31 240.045 1035.01 227.11 1028.39 217.733C1028.31 217.629 1028.23 217.499 1028.15 217.395C984.528 156.381 897.292 142.744 836.332 188.538C782.108 229.266 768.081 305.813 804.381 362.541C845.401 426.646 932.69 443.478 995.188 400.594C1019.21 384.1 1036.05 361.268 1044.96 335.995C1055.62 305.787 1019.79 280.072 993.066 298.41L993.013 298.384ZM880.11 239.655C901.826 224.772 929.482 224.486 951.013 236.538L852.931 303.813C848.742 279.864 858.446 254.513 880.11 239.655Z" fill="#051C97"/>
<path d="M1288.56 161.394C1269.76 161.394 1254.54 176.303 1254.54 194.719V357.268H1207.71C1177.11 357.268 1152.29 332.956 1152.29 302.981V195.317C1152.29 176.901 1137.07 161.992 1118.27 161.992C1099.47 161.992 1084.25 176.901 1084.25 195.317V302.981C1084.25 369.762 1139.54 423.919 1207.71 423.919H1284.77C1285.93 424.048 1287.1 424.256 1288.29 424.256C1305.37 424.256 1319.37 411.892 1321.81 395.84C1322.29 393.606 1322.55 391.321 1322.55 388.957V194.719C1322.55 176.303 1307.33 161.394 1288.53 161.394H1288.56Z" fill="#051C97"/>
<path d="M1537.59 155.42C1554.77 155.446 1571 159.524 1585.32 166.771C1607.73 178.096 1634.43 162.849 1634.43 138.147C1634.43 126.407 1628.01 115.471 1617.51 109.757C1511 51.8338 1363.65 132.952 1367.36 257.474C1363.68 381.97 1511.02 463.114 1617.54 405.165C1628.01 399.451 1634.43 388.542 1634.43 376.801C1634.43 352.125 1607.73 336.878 1585.35 348.203C1571.03 355.45 1554.77 359.528 1537.59 359.554C1400.67 357.164 1400.64 157.81 1537.59 155.42Z" fill="#051C97"/>
<path d="M2417.73 356.307C2387.37 356.307 2362.79 332.202 2362.79 302.488V226.928H2391.61C2410.41 226.928 2425.63 212.018 2425.63 193.602C2425.63 175.186 2410.41 160.277 2391.61 160.277H2362.79V126.458C2362.79 108.042 2347.57 93.1329 2328.77 93.1329C2309.97 93.1329 2294.75 108.042 2294.75 126.458V160.277H2273.14C2254.36 160.277 2239.12 175.186 2239.12 193.602C2239.12 212.018 2254.34 226.928 2273.14 226.928H2294.75V302.488C2294.75 368.252 2352.55 424.282 2419.79 424.282C2438.67 424.282 2454 409.269 2454 390.775C2454 371.848 2436.29 356.307 2417.73 356.307Z" fill="#051C97"/>
<path d="M1740.52 121.16C1740.52 102.841 1725.36 87.9902 1706.66 87.9902C1687.96 87.9902 1672.8 102.841 1672.8 121.16V391.087C1672.8 409.406 1687.96 424.256 1706.66 424.256C1725.36 424.256 1740.52 409.406 1740.52 391.087V121.16Z" fill="#051C97"/>
<path d="M1706.81 424.256C1725.61 424.256 1740.83 409.347 1740.83 390.931V228.382H1787.66C1818.26 228.382 1843.08 252.695 1843.08 282.669V390.334C1843.08 408.749 1858.3 423.659 1877.1 423.659C1895.9 423.659 1911.12 408.749 1911.12 390.334V282.669C1911.12 215.889 1855.83 161.732 1787.66 161.732H1710.61C1709.44 161.602 1708.27 161.394 1707.08 161.394C1690 161.394 1676 173.758 1673.56 189.81C1673.09 192.044 1672.82 194.33 1672.82 196.693V390.931C1672.82 409.347 1688.04 424.256 1706.84 424.256H1706.81Z" fill="#051C97"/>
<path d="M303.994 343.217L173.442 336.267C154.254 335.245 143.38 357.469 156.236 371.487L204.179 423.769C207.996 427.941 213.343 430.439 219.061 430.756L346.877 437.526C365.779 438.517 376.728 416.877 364.482 402.75L319.279 350.628C315.446 346.203 309.928 343.523 304.019 343.205L303.994 343.217Z" fill="#051C97"/>
<path d="M378.75 255.551C378.75 290.518 368.768 323.201 351.445 351.016C337.327 373.683 318.332 393.116 295.89 407.917C266.034 427.609 230.075 439.102 191.375 439.102C87.8905 439.102 4 356.923 4 255.551C4 154.178 87.8905 72 191.375 72C294.859 72 378.75 154.178 378.75 255.551Z" fill="#051C97"/>
<path d="M282.417 242.006L263.701 307.484C260.95 317.108 247.638 318.685 242.608 309.969L223.848 277.464C222.35 274.876 221.976 271.817 222.789 268.947L241.131 204.847C243.85 195.369 256.873 193.657 262.063 202.091L281.208 233.217C282.835 235.858 283.273 239.032 282.428 241.996L282.417 242.006Z" fill="#08D9D6"/>
<path d="M149.924 243.489L131.242 308.425C128.532 317.837 115.574 319.648 110.228 311.356L90.6937 281.035C88.966 278.354 88.48 275.098 89.3547 272.051L108.684 204.876C111.459 195.223 124.893 193.642 129.967 202.384L148.876 234.956C150.388 237.553 150.765 240.62 149.945 243.489H149.924Z" fill="white"/>
</svg>
