<svg width="466" height="466" viewBox="0 0 466 466" fill="none" xmlns="http://www.w3.org/2000/svg">
<path d="M372.44 341.81L210.797 333.205C187.038 331.94 173.574 359.456 189.493 376.813L248.854 441.547C253.579 446.712 260.2 449.805 267.28 450.198L425.537 458.58C448.941 459.807 462.497 433.013 447.334 415.522L391.366 350.987C386.62 345.507 379.789 342.188 372.472 341.796L372.44 341.81Z" fill="#051C97"/>
<path d="M465 233.265C465 276.56 452.641 317.027 431.192 351.466C413.712 379.532 390.193 403.593 362.407 421.919C325.44 446.301 280.917 460.531 233 460.531C104.87 460.531 1 358.781 1 233.265C1 107.75 104.87 6 233 6C361.13 6 465 107.75 465 233.265Z" fill="#051C97"/>
<path d="M345.725 216.495L322.551 297.567C319.145 309.484 302.663 311.435 296.435 300.644L273.208 260.398C271.353 257.193 270.889 253.406 271.896 249.852L294.606 170.486C297.972 158.75 314.097 156.631 320.523 167.074L344.228 205.613C346.242 208.882 346.785 212.812 345.739 216.482L345.725 216.495Z" fill="#08D9D6"/>
<path d="M181.677 218.331L158.546 298.732C155.19 310.385 139.146 312.628 132.528 302.361L108.341 264.819C106.202 261.5 105.6 257.468 106.683 253.696L130.616 170.522C134.052 158.57 150.685 156.612 156.968 167.437L180.38 207.766C182.252 210.981 182.719 214.779 181.703 218.331H181.677Z" fill="white"/>
</svg>
